<?xml version="1.0" encoding="UTF-8" standalone="no"?>
<svg width="105px" height="105px" viewBox="0 0 105 105" version="1.1" xmlns="http://www.w3.org/2000/svg" xmlns:xlink="http://www.w3.org/1999/xlink" xmlns:sketch="http://www.bohemiancoding.com/sketch/ns">
    <!-- Generator: Sketch 3.3.3 (12072) - http://www.bohemiancoding.com/sketch -->
    <title>Slice 1</title>
    <desc>Created with Sketch.</desc>
    <defs></defs>
    <g id="Page-1" stroke="none" stroke-width="1" fill="none" fill-rule="evenodd" sketch:type="MSPage">
        <path d="M5.51924,73.7146981 C5.51924,73.7146981 21.5110827,93.0449803 29.7122313,95.9859058 C35.3731913,98.0159216 50.4528145,102.40625 50.4528145,102.40625 L63.355569,102.40625 L82.2249,93.9640375 C82.2249,93.9640375 85.9634842,92.4691688 87.8308162,92.4691688 C89.6676575,92.4691688 93.3374201,93.9640375 93.3374201,93.9640375 L101.226212,102.40625 C101.226212,102.40625 102.026806,91.5414584 101.226212,88.5276205 C99.3972084,81.6423328 93.3374201,72.7088733 93.3374201,72.7088733 C93.3374201,72.7088733 97.4101381,58.4538573 94.8310243,52.40625 C93.8439356,50.0916856 92.3980594,41.7740436 91.0702255,37.2422378 C89.3483124,31.3654664 87.8308162,29.3664404 87.8308162,29.3664404 C87.8308162,29.3664404 81.1170939,18.7613227 77.4879661,14.7637338 C72.9586781,9.77459255 63.355569,2.40625 63.355569,2.40625 C63.355569,2.40625 72.3519992,20.3632733 73.8578413,29.3664404 C74.6622815,34.1760475 75.4559848,36.751734 75.4559848,41.2684564 C75.4559848,45.7851788 72.1878271,55.2127784 72.1878271,55.2127784 L50.4528145,39.3239592 L22.4741964,11.333127 L34.3707607,29.3664404 L50.4528145,50.4099288 L32.7294948,37.2422378 L11.1003281,17.3563967 L34.3707607,50.4099288 L57.8581122,73.7146981 C57.8581122,73.7146981 52.321881,78.0479388 46.0974488,79.7627849 C40.4019002,81.3319224 34.1987772,80.3241025 29.7122313,79.7627849 C25.9565312,79.2929045 11.1003281,73.7146981 11.1003281,73.7146981 L1.58203125,66.6739249 L5.51924,73.7146981 Z" id="Path-1" stroke="#979797" sketch:type="MSShapeGroup"></path>
    </g>
</svg>